<svg fill="none" height="467" viewBox="0 0 466 467" width="466" xmlns="http://www.w3.org/2000/svg"><path d="m447.5 200.807c-11.976-78.422-61.099-174.762-158.139-184.8431 0 0-73.677-8.9618-146.303 4.6198-43.1101 8.0608-80.907 32.0578-104.824 66.5457-23.917 34.4876-31.90559 76.5436-22.2107 116.6336 6.2979 26.041 10.5536 52.992 9.3857 79.744-2.0407 46.572-.8634 90.042 44.3318 117.816 40.3552 24.803 91.1422 46.671 139.5952 50.501 32.927 2.605 69.854-1.609 101.589-10.181 161.733-43.673 148.555-162.424 136.575-240.836z" fill="#919eab" fill-opacity=".08"/><path d="m421.081 119.422-160.461-93.6842-5.111-2.9355 1.623-1.6906-8.923-2.5352-12.58 5.9965-190.0707 94.946h-.3029v249.639l10.5268 1.255 4.32-1.353-1.2401-1.384 121.2869-11.934 12.216-1.202 109.186-10.751 11.028-1.087 98.729-9.732 9.998-.994v-212.559zm-172.866-87.4931 151.24 87.5241-324.7115.407zm-189.4125 323.1051v-221.808l121.3765-.785v211.315zm133.8385-12.451v-210.208l108.914-.727v200.717zm218.37-20.465-98.077 9.249v-199.775l98.077-.65z" fill="#919eab" opacity=".48"/><path d="m428.893 333.156-372.2578 37.023v-12.625l372.2578-35.181z" fill="#dfe3e8"/><path d="m69.6392 368.88-13.004 1.299v-242.861l13.004-.053z" fill="#dfe3e8"/><path d="m201.853 355.686-12.463 1.235v-230.172l12.463-.044z" fill="#dfe3e8"/><path d="m320.521 343.863-10.838 1.117v-218.725l10.838-.05z" fill="#dfe3e8"/><path d="m428.893 333.158-9.211.958v-208.312l9.211-.044z" fill="#dfe3e8"/><path d="m269.5 28.376-12.357 6.3042-195.0436 99.4688-5.5633-11.287 188.1209-95.4247 12.486-6.2932z" fill="#dfe3e8"/><path d="m429.023 121.78-4.59 9.884-167.29-96.9838-12.486-7.2429 12.486-6.2932 12.357 7.2319z" fill="#dfe3e8"/><path d="m428.893 132.734-372.2578 2.752v-12.626l372.2578-.908z" fill="#dfe3e8"/><g fill="#c4cdd5"><path d="m199.254 352.701c1.454-1.454 1.454-3.81 0-5.264-1.453-1.453-3.81-1.453-5.263 0-1.454 1.454-1.454 3.81 0 5.264 1.453 1.453 3.81 1.453 5.263 0z"/><path d="m67.8671 133.057c1.4535-1.454 1.4535-3.81 0-5.264-1.4535-1.453-3.8101-1.453-5.2636 0-1.4535 1.454-1.4535 3.81 0 5.264 1.4535 1.453 3.8101 1.453 5.2636 0z"/><path d="m200.239 131.273c.472-2.001-.767-4.005-2.768-4.477-2-.473-4.005.766-4.477 2.767s.767 4.005 2.767 4.477c2.001.472 4.005-.767 4.478-2.767z"/><path d="m318.034 131.067c1.454-1.453 1.454-3.81 0-5.263-1.453-1.454-3.81-1.454-5.263 0-1.454 1.453-1.454 3.81 0 5.263 1.453 1.454 3.81 1.454 5.263 0z"/><path d="m425.532 131.067c1.454-1.453 1.454-3.81 0-5.263-1.453-1.454-3.81-1.454-5.263 0-1.454 1.453-1.454 3.81 0 5.263 1.453 1.454 3.81 1.454 5.263 0z"/><path d="m258.976 31.5306c1.454-1.4535 1.454-3.8101 0-5.2636-1.453-1.4535-3.81-1.4535-5.263 0-1.454 1.4535-1.454 3.8101 0 5.2636 1.453 1.4535 3.81 1.4535 5.263 0z"/><path d="m66.2055 362.851c.4722-2.001-.7668-4.006-2.7674-4.478s-4.0052.767-4.4774 2.768c-.4722 2 .7669 4.005 2.7674 4.477 2.0006.472 4.0052-.767 4.4774-2.767z"/><path d="m319.015 339.627c.472-2-.767-4.005-2.767-4.477-2.001-.472-4.006.767-4.478 2.767-.472 2.001.767 4.006 2.768 4.478 2 .472 4.005-.767 4.477-2.768z"/><path d="m425.56 330.83c1.308-1.309 1.308-3.43 0-4.738s-3.429-1.308-4.737 0-1.308 3.429 0 4.738c1.308 1.308 3.429 1.308 4.737 0z"/></g><path d="m354.454 258.695c-7.404-2.3-12.961-7.419-17.076-13.187-8.101-11.374-10.607-25.307-10.607-25.307l2.252-3.611 4.465-7.147c3.812 15.371 33.507 27.717 33.507 27.717 1.926 6.568 9.455 28.372-12.541 21.535z" fill="#fdab76"/><path d="m356.836 252.399s-10.32-1.294-19.458-6.898c-8.101-11.375-10.607-25.308-10.607-25.308l2.252-3.61c2.306 1.56 5.742 4.762 7.064 10.464 2.053 8.924 12.544 5.734 20.757 12.921 8.213 7.186-.008 12.431-.008 12.431z" fill="#b3200e" opacity=".24"/><path d="m300.605 197.301s-10.423 9.118-5.023 11.444l8.791 3.796 2.098-14.375z" fill="#770508"/><path d="m334.95 209.331-7.139 36.424-31.84-13.733 8.5-35.836z" fill="#770508"/><path d="m249.851 152.316-.136.315c-.711 1.648.049 3.561 1.698 4.272l26.078 11.247c1.649.711 3.562-.049 4.273-1.697l.136-.314c.711-1.649-.049-3.562-1.698-4.273l-26.078-11.247c-1.649-.711-3.562.049-4.273 1.697z" fill="#770508"/><path d="m279.465 161.428-3.071 7.122c-1.023 2.372.07 5.123 2.442 6.146l.21.091c2.372 1.023 5.123-.071 6.146-2.442l3.072-7.122c1.023-2.372-.071-5.123-2.442-6.146l-.211-.091c-2.371-1.023-5.123.071-6.146 2.442z" fill="#770508"/><path d="m277.776 177.824c-.55 1.204-.666 2.561-.329 3.841s1.107 2.404 2.179 3.181c4.395 3.152 8.829 6.261 13.302 9.329 5.089-12.415 10.178-24.831 15.266-37.248-4.964-.861-9.927-1.775-14.891-2.742-1.266-.244-2.578-.052-3.722.543s-2.053 1.559-2.581 2.736c-3.071 6.785-6.146 13.571-9.224 20.36z" fill="#fa541c"/><path d="m308.276 156.835-15.991 37.076 42.732 18.431c2.064.89 4.282 1.365 6.529 1.397 2.247.033 4.478-.377 6.566-1.207 2.089-.83 3.993-2.063 5.605-3.628 1.611-1.566 2.899-3.434 3.789-5.497l2.439-5.651c1.797-4.167 1.865-8.876.19-13.093-1.676-4.217-4.957-7.595-9.123-9.393z" fill="#fdab76"/><path d="m311.919 169.118-.068.159c-.655 1.518.045 3.279 1.563 3.934l22.782 9.826c1.518.654 3.28-.046 3.934-1.564l.069-.158c.654-1.518-.046-3.28-1.564-3.935l-22.781-9.825c-1.518-.655-3.28.045-3.935 1.563z" fill="#b3200e" opacity=".24"/><path d="m332.678 252.324c.357-.825.547-1.713.56-2.611.013-.899-.151-1.791-.483-2.627-.332-.835-.825-1.597-1.452-2.241-.626-.645-1.373-1.16-2.199-1.516l-36.447-15.719c-.825-.356-1.712-.547-2.611-.56s-1.791.151-2.626.483c-.836.332-1.597.825-2.242 1.451s-1.16 1.373-1.516 2.198c-.356.826-.546 1.713-.559 2.612s.151 1.791.483 2.626c.332.836.825 1.597 1.452 2.242.626.645 1.373 1.16 2.199 1.515l36.447 15.72c.825.356 1.712.546 2.611.559.898.014 1.791-.15 2.626-.482s1.597-.825 2.242-1.451c.645-.627 1.16-1.374 1.515-2.199z" fill="#fa541c"/><path d="m351.998 403.426.544 8.718s-1.238 1.311-3.62.399l-2.601-8.562z" fill="#fdbab9"/><path d="m350.913 409.839s4.27 1.742 3.441 3.631c-.444 1.014-1.984 3.304-3.315 5.208-.601.86-1.457 1.509-2.447 1.854-.99.346-2.064.371-3.069.071-.693-.207-1.399-.41-2.025-.57-.281-.073-.531-.235-.713-.46-.182-.226-.287-.504-.299-.794s.069-.576.232-.816c.162-.24.398-.422.671-.519.567-.208 1.15-.366 1.744-.47 1.562-.242 3.714-3.934 3.966-5.415.251-1.48 1.814-1.72 1.814-1.72z" fill="#063963"/><path d="m361.17 319.747c-6.29 2.171-29.548 10.963-34.73 31.128-.276 1.077-.986 4.071-1.017 8.96-.133 20.354 11.703 37.581 20.31 47.602l8.142-.136c1.355-5.195 2.598-12.965.652-21.707-2.983-13.364-10.702-16.828-9.212-23.39 2.705-11.91 30.36-10.108 32.965-20.773.942-3.849-1.127-10.387-17.11-21.684z" fill="#116e95"/><path d="m438.962 441.61-11.81-.275c-.16-.002-.316-.055-.447-.149-.13-.094-.228-.226-.281-.378-.052-.152-.057-.316-.014-.471.044-.155.134-.292.259-.394.308-.274.67-.481 1.062-.608.393-.127.807-.172 1.217-.132 2.245.234 7.286-2.907 9.576-2.233.747.22 1.355 1.978 1.665 2.463.14.216.217.466.225.723.007.257-.055.512-.182.736-.126.224-.311.409-.535.536-.224.126-.478.189-.735.182z" fill="#063963"/><path d="m433.656 432.533 4.866 4.433c-.611.395-1.296.663-2.013.787-.717.125-1.452.104-2.161-.062l-4.972-3.422z" fill="#fdbab9"/><path d="m340.305 372.264c-3.262-8.807-7.173-19.666-2.707-25.831 4.521-6.24 14.427-.973 24.363-6.001 3.686-1.865 7.474-5.202 10.624-11.241 5.578 5.758 6.336 9.623 5.696 12.244-2.606 10.665-30.261 8.863-32.966 20.773-1.489 6.558 6.234 10.023 9.212 23.389 1.673 7.516.987 14.307-.098 19.368-1.025-5.039-2.626-9.943-4.772-14.616-3.563-7.725-5.916-8.808-9.352-18.085z" fill="#063963" opacity=".24"/><path d="m357.566 317.203c3.829 17.581 11.987 44.413 30.675 72.426 11.375 17.038 25.172 32.328 40.957 45.388 2.362.711 4.904.516 7.129-.548-1.144-7.035-3.392-13.845-6.66-20.179-7.516-14.466-14.208-14.001-21.757-26.77-5.529-9.348-7.326-19.28-10.919-39.142-2.777-15.336-2.779-19.003-6.579-23.4-7.684-8.896-22.114-8.997-32.846-7.775z" fill="#116e95"/><path d="m371.987 225.269c-1.289-2.54-1.821-2.526-2.138-3.866-.722-3.053 1.141-6.934 2.722-6.987 1.019-.035 1.099 1.548 3.259 4.017 2.642 3.023 4.238 2.626 5.799 5.251.364.613 2 3.376.993 5.439-1.284 2.632-6.348 3.048-8.464 1.019-1.004-.963-.582-1.744-2.171-4.873z" fill="#770508"/><path d="m375.783 228.009s-.904 4.827-.261 8.751c.583 3.546 7.152 7.23 8.413 8.287 1.26 1.056-3.341 2.197-7.56 1.651-4.22-.546-15.77-4.249-17.527-6.309-1.756-2.059 2.041-1.045 5.24-1.434 3.199-.39 6.246-5.746 6.339-8.477.092-2.732 5.356-2.469 5.356-2.469z" fill="#fdbab9"/><path d="m374.408 231.609s-3.231 1.413-6.091-.87c-2.562-2.041 1.247-8.34 3.853-8.42.869-.027 2.138.595 2.888 1.507.441.538.471.896 1.209 1.761.681.799.982.871 1.084 1.256.131.485-.092 1.295-1.846 2.687.875-.156 1.628.07 1.92.58.092.184.131.391.113.596-.096.952-1.351 1.391-3.13.903z" fill="#fdbab9"/><path d="m303.426 214.824s-1.955-.273-1.345-4.009c.471-2.928.116-3.914-.576-3.394-.692.519-.785 2.212-.785 2.212s-2.522-2.151-3.56-4.969c-1.038-2.817-1.705-.445-1.928.964-.223 1.41 1.484 5.783 2.448 6.593.963.81 2.371 4.411 2.371 4.411z" fill="#fdbab9"/><path d="m298.214 215.822 6.677-4.675c2.706 16.64 8.861 23.175 14.087 26.033 12.61 6.892 23.86-5.39 48.002-.378 6.651 1.381 18.243 3.954 24.672 13.429 1.69 2.492 2.291 4.377 5.097 22.244 3.587 22.839 3.715 26.824 3.208 31.742-.924 9-1.485 14.455-5.635 19.282-11.018 12.817-34.439 6.208-37.375 5.337-5.425-1.606-13.855-4.103-17.204-11.272-1.57-3.372-1.413-6.455 1.014-18.789 4.797-24.43 5.411-26.013 4.072-28.688-4.521-9.027-18.838-3.861-30.941-12.258-7.073-4.907-15.046-15.605-15.674-42.007z" fill="#fdab76"/><path d="m367.921 325.576c-2.354-4.843.814-9.306-2.668-15.128-4.438-7.418-12.422-4.899-15.425-10.381-5.138-9.376 15.084-22.447 10.975-37.376-1.961-7.125-8.812-12.283-14.535-14.238-12.704-4.337-21.014 6.721-32.926 3.264-2.825-.819-6.062-2.512-9.34-6.042 2.896 6.111 6.494 9.803 9.89 12.158 12.098 8.396 26.419 3.23 30.94 12.258 1.339 2.669.725 4.257-4.072 28.688-2.422 12.333-2.59 15.416-1.014 18.788 3.35 7.169 11.773 9.667 17.204 11.273 1.608.471 9.353 2.668 17.842 2.453-3.786-1.538-5.827-3.579-6.871-5.717z" fill="#b3200e" opacity=".24"/><path d="m352.64 329.189s-21.109-6.436-13.249-40.698c5.433-18.401 3.08-17.26 3.08-17.26s29.142 5.601 33.842 0-11.782-31.328-17.914-35.574c0 0 4.804-1.675 8.576 1.146s18.828 32.705 23.162 32.932c4.334.228-1.925-21.65-4.612-25.766 0 0 5.577 3.028 8.288 11.773 2.711 8.746 9.249 62.582 3.129 69.199-6.121 6.616-20.217 7.756-20.217 7.756z" fill="#fa541c"/><path d="m139.883 302.125h-27.38c-2.804 0-5.181 1.697-6.009 4.112l-17.8895 52.734v71.888l33.7815-3.733 4.989-.554 31.425-3.465-.802-67.669z" fill="#fdab76"/><path d="m147.142 306.097c-.798-2.327-3.091-3.972-5.741-3.972h-22.633c-2.772 0-5.153 1.689-5.965 4.082l-17.6536 52.361.0801 71.501 33.3485-3.653 4.984-.538 31.238-3.436-.846-67.215z" fill="#fdab76"/><path d="m128.163 314.489v-.535c-.087-.053-.186-.084-.287-.091-2.134-.169-3.838 2.534-3.838 6.044s1.687 6.481 3.822 6.627c.102.011.205.001.303-.028v-.235l141.427 9.709v-10.289z" fill="#fdab76"/><path d="m128.164 314.49v-.536c-.087-.052-.185-.084-.287-.091-2.133-.169-3.838 2.534-3.838 6.044s1.688 6.481 3.822 6.627c.102.011.205.001.303-.028v-.235l141.427 9.709v-10.289z" fill="#b3200e" opacity=".24"/><path d="m296.679 399.415-137.091-15.897v-30.678l137.091 16.222z" fill="#fdab76"/><path d="m296.679 373.228-137.091-16.176v-4.212l137.091 16.222z" fill="#fee9d1" opacity=".48"/><path d="m231.867 440.17-11.185-6.309-.092-12.838-11.185-6.309-.075-12.842-11.198-6.315-.092-12.836-11.059-6.319.011-.089-.063-.028-.035-.027.081-13.12-10.678-6.595-.089-.039-.423.03-.089.168-.149-12.441-10.73-5.969-.105-.139-.082-12.724-10.861-6.119-.339-.562-.083-12.453-10.626-5.998-.568-.967-.082-12.18-10.36-5.849-.84-1.406-.077-11.89-10.131-5.717-.609-1.045 1.411-.339 43.431-10.703 13.614-3.352 73.244 179.131-4.706 3.368z" fill="#c4cdd5"/><path d="m247.048 429.347-82.152-179.146 13.614-3.352 73.244 179.131z" fill="#919eab" opacity=".48"/><path d="m179.494 345.626c-.622.905-.858 2.021-.658 3.101.201 1.08.822 2.036 1.727 2.658l.616.422c.905.622 2.021.859 3.101.658 1.08-.2 2.036-.821 2.658-1.727l47.407-69.03c.622-.906.859-2.021.658-3.101-.2-1.08-.822-2.037-1.727-2.659l-.615-.424c-.449-.308-.953-.524-1.486-.637-.532-.113-1.081-.12-1.616-.021-.535.1-1.045.304-1.501.6-.456.297-.849.68-1.157 1.129z" fill="#063963"/><path d="m227.686 265.341 13.803-13.319c.299-.287.687-.462 1.1-.495.412-.033.824.078 1.164.314l5.011 3.454 2.77 1.904c.338.233.586.574.703.967.116.394.094.815-.062 1.195l-7.48 17.666c-.232.548-.633 1.008-1.145 1.312l-4.296 2.512c-1.404.835-3.116.709-4.461-.215l-2.346-1.611-2.276-1.57-2.309-1.585c-1.345-.923-2.077-2.479-1.8-4.082l.827-4.946c.096-.573.376-1.1.797-1.501z" fill="#063963"/><path d="m182.022 244.056-22.699-57.714c-.423-1.071-1.173-1.983-2.142-2.605-.97-.622-2.111-.924-3.261-.863l-4.675.261c-.151.006-.301.02-.45.042-1.119.154-2.162.649-2.988 1.418-.825.77-1.393 1.776-1.624 2.88l-1.143 5.435c-.21.984-.685 1.891-1.373 2.624-.689.732-1.566 1.263-2.534 1.533l-34.793 9.589c-3.681 1.017-6.8088 3.452-8.6964 6.772s-2.381 7.254-1.3717 10.937l7.5711 27.617c.831 3.042 2.757 5.669 5.408 7.378l16.104 10.4c1.104.712 2.398 1.073 3.711 1.034.697-.018 1.386-.15 2.041-.391l49.082-17.854c.816-.298 1.564-.755 2.2-1.346.637-.591 1.149-1.303 1.506-2.095.357-.791.552-1.646.574-2.515.021-.868-.131-1.732-.449-2.54zm-23.441-7.863-34.185 13.483c-.5.197-1.035.29-1.572.272-.538-.017-1.065-.145-1.551-.376-.486-.23-.919-.557-1.273-.962-.354-.404-.621-.877-.784-1.389l-7.535-23.528c-.158-.492-.216-1.01-.173-1.524s.187-1.015.424-1.474.563-.866.958-1.199c.394-.332.851-.584 1.343-.74l35.416-11.216c.497-.157 1.02-.214 1.54-.166.519.047 1.024.198 1.484.442.461.245.868.579 1.198.983.33.403.576.869.724 1.369l6.296 21.263c.279.939.196 1.948-.231 2.829-.428.881-1.169 1.571-2.079 1.933z" fill="#fdab76"/><path d="m150.377 189.783c-1.447 5.966-1.989 13.406-11.017 13.563-9.027.157-40.0963 7.749-39.7384 15.335.358 7.587 6.5024 36.18 10.8314 37.778 0 0 16.142 11.146 16.608 14.339-1.313.038-2.607-.323-3.711-1.035l-16.099-10.403c-2.651-1.708-4.577-4.336-5.408-7.378l-7.5711-27.617c-1.0093-3.683-.5159-7.616 1.3717-10.936s5.0154-5.756 8.6964-6.772l34.793-9.59c.968-.27 1.845-.8 2.534-1.533.688-.733 1.163-1.64 1.373-2.624l1.143-5.434c.231-1.105.799-2.111 1.624-2.88.826-.77 1.869-1.265 2.988-1.418 1.262 1.659 2.238 3.907 1.582 6.605z" fill="#b3200e" opacity=".24"/><path d="m171.424 334.784-2.127 3.096c-1.295 1.886-.816 4.465 1.07 5.76l21.53 14.786c1.886 1.295 4.464.816 5.76-1.069l2.126-3.097c1.296-1.886.817-4.465-1.069-5.76l-21.53-14.786c-1.886-1.295-4.465-.816-5.76 1.07z" fill="#77f0ed"/><path d="m162.732 339.088-46.118 67.149c-1.237 1.818-1.705 4.052-1.3 6.213s1.649 4.075 3.46 5.322l22.479 15.437c1.811 1.243 4.042 1.717 6.202 1.316s4.072-1.644 5.316-3.454l46.118-67.149c.899-1.308 1.403-2.846 1.454-4.432.05-1.586-.356-3.153-1.17-4.515-.605-1.028-1.428-1.911-2.411-2.586l-22.478-15.439c-1.816-1.245-4.052-1.719-6.217-1.318-2.166.401-4.084 1.644-5.335 3.456z" fill="#77f0ed"/><path d="m142.624 418.5c-.224.327-.381.694-.462 1.081-.082.387-.086.787-.013 1.175.073.389.221.76.438 1.091.216.331.495.617.822.84.326.223.693.38 1.08.461.387.082.786.086 1.175.013.388-.073.759-.221 1.09-.437s.616-.496.84-.822l38.216-55.642c.223-.326.38-.693.462-1.081.081-.387.086-.786.013-1.175s-.222-.759-.438-1.09c-.216-.332-.496-.617-.822-.84-.326-.224-.694-.381-1.081-.462-.387-.082-.786-.086-1.174-.013-.389.073-.76.221-1.091.438-.331.216-.616.495-.839.821z" fill="#116e95"/><path d="m127.027 407.79c-.224.326-.381.693-.462 1.08-.082.387-.086.786-.013 1.175.072.388.221.759.437 1.09.217.331.496.616.822.84.326.223.693.381 1.08.463.386.082.785.087 1.174.015s.759-.22 1.091-.436c.331-.215.617-.494.84-.82l38.224-55.652c.224-.327.381-.694.462-1.081.082-.387.086-.787.013-1.175-.073-.389-.221-.76-.438-1.091-.216-.331-.495-.617-.822-.84-.326-.223-.693-.38-1.08-.462-.387-.081-.786-.085-1.175-.012-.388.073-.759.221-1.09.437s-.616.495-.84.822z" fill="#116e95"/><path d="m115.201 411.496c.081 1.249.445 2.463 1.064 3.551s1.477 2.02 2.509 2.728l22.479 15.437c1.811 1.244 4.042 1.717 6.202 1.316 2.159-.401 4.072-1.643 5.315-3.454l46.119-67.148c.899-1.308 1.403-2.847 1.453-4.433s-.358-3.154-1.174-4.515c-2.295 5.089-5.406 12.663-10.613 15.453-4.968 2.659-13.64 10.103-16.461 20.308s-13.413 29.523-23.868 31.978-18.563 4.102-33.025-11.221z" fill="#116e95" opacity=".32"/><path d="m231.113 402.272-136.5476-15.899v-30.676l136.5476 16.222z" fill="#fdab76"/><path d="m231.113 445.718-136.5476-15.431v-30.678l136.5476 15.758z" fill="#fdab76"/><path d="m282.471 311.34h-27.354c-2.807 0-5.228 1.895-6.058 4.45l-17.946 55.548v74.382l33.122-4.044 5-.606 31.18-3.814-.133-69.719z" fill="#fdab76"/><path d="m304.588 367.341.157 69.383-68.549 8.392-.011-74.044 17.866-55.303c.426-1.28 1.241-2.395 2.332-3.19 1.09-.794 2.401-1.229 3.75-1.243h22.663c2.65 0 4.841 1.834 5.615 4.292z" fill="#fdab76"/><g fill="#b3200e" opacity=".24"><path d="m231.113 376.085-136.5476-16.178v-4.21l136.5476 16.222z"/><path d="m231.113 420.128-136.5476-15.707v-4.812l136.5476 15.758z"/><path d="m277.685 330.188c0 3.121-1.618 5.689-3.631 5.734-2.012.046-3.668-2.461-3.671-5.604-.003-3.142 1.635-5.707 3.656-5.732 2.02-.026 3.642 2.483 3.646 5.602z"/><path d="m304.589 367.89.157 68.839-65.569 8.022c-.132-9.668 2.075-20.012 11.426-26.085 7.181-4.67 17.111-2.796 23.376-8.281 5.034-4.406 5.158-11.716 6.368-17.449 2.71-12.751 13.844-14.557 22.17-22.784.587-.579 1.003-1.342 2.072-2.262z"/></g><path d="m400.56 122.39c3.719 1.884 8.391.157 10.436-3.873 2.045-4.029.686-8.822-3.033-10.71-.191-.097-.389-.179-.585-.257.683-2.199 1.205-4.445 1.56-6.721.214 0 .427 0 .645-.023 4.239-.379 7.61-4.2778 7.521-8.7093-.09-4.4315-3.6-7.717-7.849-7.3387-.221.0204-.439.055-.656.0926-.435-2.1822-1.037-4.3276-1.802-6.4172.195-.113.389-.2323.579-.3641 3.629-2.5431 4.789-7.5632 2.592-11.2113-2.198-3.6482-6.923-4.5445-10.554-2.0015-.185.1303-.361.2716-.533.4144-1.444-1.5949-3.019-3.0652-4.71-4.3953.12-.1962.237-.394.342-.6028 2.041-4.0265 4.718-8.425.969-10.2553-8.67-4.2384-12.39-.6091-14.442 3.4174-.107.2088-.198.4207-.286.6279-2.071-.5789-4.187-.9827-6.326-1.2072.014-.2229.024-.4474.021-.675-.09-4.4314 1.226-6.8285-3.033-6.907-9.288-.1805-12.422 3.8507-12.332 8.2806 0 .2323.023.4583.047.6844-2.142.6106-4.232 1.3863-6.254 2.3201-.096-.1978-.196-.394-.314-.5855-2.198-3.6482-6.923-4.5523-10.553-2.0015-3.631 2.5509-4.787 7.5632-2.587 11.205.111.1868.235.3611.361.5338-1.627 1.6294-3.133 3.376-4.504 5.2257-.181-.113-.363-.2229-.556-.3139-3.719-1.8838-8.39-.157-10.434 3.8726s-.688 8.8205 3.031 10.7089c.193.0989.389.1806.586.2591-.684 2.1968-1.205 4.4408-1.561 6.7139-.213 0-.427 0-.643.0235-4.239.3783-7.612 4.2761-7.523 8.7077.09 4.431 3.601 7.717 7.849 7.338.223-.018.44-.053.656-.092.441 2.182 1.048 4.328 1.818 6.417-.196.115-.389.232-.579.366-3.631 2.543-4.791 7.561-2.593 11.211 2.197 3.65 9.476 5.337 13.107 2.801.186-.132-2.197-1.071-2.02-1.214 1.444 1.595 3.019 3.065 4.709 4.396-.119.196-.237.395-.342.604-2.041 4.026-.687 8.82 3.031 10.709 3.719 1.888 8.391.157 10.436-3.873.105-.209.196-.42.284-.628 2.071.58 4.187.984 6.326 1.207-.014.225-.023.449-.018.677.087 4.43 3.599 7.717 7.848 7.339 4.25-.379 7.611-4.278 7.521-8.709 0-.231-.023-.459-.047-.683 2.142-.611 4.232-1.387 6.254-2.32.096.197.196.394.314.584 2.198 3.649 6.923 4.552 10.552 2.001s4.791-7.562 2.593-11.211c-.113-.185-.237-.361-.362-.534 1.627-1.63 3.132-3.376 4.505-5.226.163.113.339.223.538.322zm-46.35.587c-13.5-6.855-18.431-24.2637-11.007-38.8845 7.423-14.6209 24.386-20.9141 37.887-14.0589 13.502 6.8552 18.431 24.2655 11.008 38.8844-7.424 14.62-24.388 20.914-37.888 14.059z" fill="#116e95"/><path d="m409.583 100.814c4.239-.378 7.611-4.2775 7.521-8.709-.089-4.4314-3.599-7.7169-7.849-7.3386-.221.0204-.439.0549-.656.0926-.434-2.1839-1.037-4.3309-1.802-6.4219.195-.1131.389-.2324.579-.3642 3.63-2.543 8.121-8.6887 5.559-12.0872-4.866-6.4596-9.89-3.6639-13.52-1.1209-.186.1303-.362.2716-.534.4145-1.444-1.595-3.019-3.0653-4.71-4.3954.12-.1962.238-.394.343-.6028.527-1.0201.84-2.1371.921-3.2825.081-1.1455-.072-2.2954-.45-3.3796-3.507 6.1744-6.961 12.374-10.361 18.5986 10.772 7.8928 14.2 23.4477 7.468 36.7094-5.702 11.233-17.048 17.543-28.123 16.752-.494 1.281-.979 2.57-1.508 3.838-1.435 3.443-3.066 6.815-4.699 10.183 1.027.194 2.058.345 3.093.454-.014.225-.024.449-.019.677.088 4.43 2.778 8.195 10.469 7.787 4.252-.226 4.984-4.726 4.894-9.158 0-.231-.023-.458-.045-.683 2.14-.611 4.231-1.387 6.252-2.32.096.198.196.394.314.584 2.198 3.65 9.824 5.199 13.455 2.656 3.63-2.543 1.883-8.216-.314-11.864-.113-.188-.237-.363-.363-.535 1.627-1.63 3.133-3.377 4.505-5.226.179.113.361.223.554.322 3.719 1.883 8.391.157 10.436-3.873 2.046-4.029.686-8.822-3.033-10.71-.191-.098-.389-.179-.585-.258.683-2.199 1.205-4.445 1.56-6.72.217-.002.43-.005.648-.019z" fill="#063963"/><path d="m404.56 122.846c3.719 1.883 8.39.157 10.436-3.872 2.045-4.028.686-8.822-3.033-10.71-.192-.097-.389-.181-.586-.259.684-2.199 1.206-4.445 1.561-6.72.213 0 .427 0 .645-.024 4.238-.378 7.61-4.2758 7.521-8.7073-.09-4.4314-3.6-7.7169-7.849-7.3386-.222.0188-.44.0549-.656.0926-.439-2.1827-1.047-4.3281-1.817-6.4172.195-.1146.39-.2323.58-.3642 3.629-2.543 4.789-7.5631 2.591-11.2113-2.197-3.6481-6.922-4.5445-10.553-2.0014-.185.1302-.361.27-.534.4128-1.444-1.5946-3.019-3.0649-4.709-4.3953.119-.1963.237-.3941.342-.6028 2.041-4.0265.688-8.8221-3.031-10.7106-3.719-1.8884-8.391-.1569-10.434 3.8727-.107.2087-.198.4207-.286.6279-2.071-.5796-4.187-.9835-6.326-1.2072.014-.2245.023-.4489.02-.675-.089-4.4314-3.601-7.717-7.849-7.3386-4.247.3783-7.61 4.276-7.52 8.7075 0 .2323.023.4583.047.6828-2.137.6151-4.224 1.3934-6.242 2.328-.095-.1963-.196-.394-.314-.584-2.197-3.6481-6.924-4.5445-10.553-2.0014-3.629 2.543-4.791 7.5631-2.592 11.2112.113.1868.236.3611.361.5338-1.627 1.6294-3.132 3.376-4.503 5.2257-.181-.113-.363-.2229-.556-.3139-3.719-1.8838-8.391-.157-10.434 3.871-2.044 4.028-.688 8.8221 3.031 10.7105.193.0974.389.1806.585.259-.684 2.1989-1.205 4.445-1.56 6.7202-.214 0-.427 0-.645.0236-4.239.3783-7.61 4.276-7.521 8.7075.09 4.431 3.601 7.717 7.849 7.339.223-.019.439-.055.656-.093.44 2.183 1.048 4.328 1.818 6.417-.196.115-.389.233-.579.366-3.631 2.543-4.791 7.562-2.594 11.21 2.198 3.648 6.925 4.544 10.554 2.001.187-.13.361-.27.534-.413 1.444 1.595 3.019 3.065 4.709 4.396-.119.196-.237.394-.342.602-2.041 4.027-.688 8.823 3.031 10.711s8.39.157 10.436-3.873c.105-.208.196-.42.284-.628 2.071.58 4.187.984 6.326 1.208-.014.224-.024.449-.019.675.088 4.431 3.6 7.717 7.849 7.338 4.249-.378 7.61-4.276 7.521-8.707 0-.233-.024-.459-.047-.683 2.137-.615 4.224-1.393 6.243-2.328.095.198.196.394.314.584 2.197 3.648 6.922 4.552 10.552 2.001 3.629-2.551 4.79-7.561 2.593-11.211-.113-.187-.237-.361-.363-.534 1.627-1.63 3.133-3.376 4.505-5.225.178.1.36.216.553.314zm-46.358.588c-13.5-6.855-18.431-24.2637-11.008-38.8845 7.424-14.6208 24.387-20.914 37.888-14.0588 13.502 6.8551 18.431 24.2638 11.007 38.8843-7.423 14.621-24.384 20.914-37.887 14.059z" fill="#22b8cf"/></svg>