<svg fill="none" height="32" viewBox="0 0 32 32" width="32" xmlns="http://www.w3.org/2000/svg"><path d="m30.0013 10.0251v11.6137c0 .7353-.4084 1.3952-1.0655 1.7238l-12.3698 6.268c-.2695.134-.5642.2012-.8583.2012h-.0121c-.3028-.0021-.6052-.0743-.8796-.2176l-.0049-.0027-11.77729-6.2505c-.63747-.3341-1.03381-.9879-1.03381-1.7079v-11.6422c0-.32856.08198-.64237.23183-.919.17933-.33022.45486-.60684.80203-.78835l11.78214-6.25326c.5455-.28483 1.1994-.29085 1.75-.01641l.0055.00219 12.3643 6.26529c.3631.18152.6501.46415.8338.80476.1497.27608.2317.58989.2317.91898z" fill="#fdab76"/><path d="m29.9988 10.0248v11.6137c0 .7354-.4084 1.3952-1.0656 1.7238l-12.3697 6.2681c-.2696.1339-.5642.2012-.8584.2012h-.012v-13.7711l14.074-6.95467c.1497.27608.2317.58989.2317.91897z" fill="#fa541c"/><path d="m29.7701 9.10605-6.2675 3.09715-1.5417.7621-6.2647 3.0954-13.46378-6.96886c.17933-.33022.45486-.60685.80203-.78836l5.05107-2.68107 1.75112-.9294 4.97996-2.64279c.275-.14378.5773-.21652.8796-.21816.2985-.00164.597.06563.8704.20175l.0054.00219 12.3644 6.26529c.363.18152.65.46416.8337.80476z" fill="#fee9d1"/><path d="m23.5359 12.4366v.0005 4.313c0 .4526-.3674.82-.8201.82s-.8201-.3674-.8201-.82v-3.8188l-6.2008-3.28131-7.61067-4.02759 1.75112-.92941 5.85955 3.10093 7.4046 3.91828c.0011.0005.0022.0011.0033.0016.0159.0088.0312.0186.0465.0279.0082.0049.017.0099.0252.0153l.0005.0006c.064.0432.1203.0945.1679.1514.0021.0028.0043.0049.006.0071.012.0142.0224.0296.0333.0443.005.0071.0104.0137.0153.0214.0077.0109.0137.0224.0208.0339.0071.012.0148.024.0214.0366.0038.0071.0071.0142.0103.0213.0088.0175.017.035.0247.0531.0011.0027.0016.0049.0027.0071.0093.023.017.0459.0235.0694.0153.0487.0257.0995.0306.152.0027.0272.0044.054.0044.0814z" fill="#fdab76"/><path d="m23.5337 12.437v.0005 4.313c0 .4527-.3674.8201-.8201.8201-.4526 0-.82-.3674-.82-.8201v-3.7537l1.6051-.7933c.0153.0487.0257.0995.0306.152.0028.0273.0044.0541.0044.0815z" fill="#b3200e"/></svg>