<svg fill="none" height="80" viewBox="0 0 80 80" width="80" xmlns="http://www.w3.org/2000/svg"><path d="m49.3523 75.4369c-.631 0-1.1426-.5116-1.1426-1.1426v-2.5566c0-.631.5116-1.1426 1.1426-1.1426s1.1426.5116 1.1426 1.1426v2.5566c0 .631-.5116 1.1426-1.1426 1.1426z" fill="#22b8cf"/><path d="m67.8357 75.4369c-.631 0-1.1426-.5116-1.1426-1.1426v-2.5566c0-.631.5116-1.1426 1.1426-1.1426s1.1426.5116 1.1426 1.1426v2.5566c0 .631-.5116 1.1426-1.1426 1.1426z" fill="#22b8cf"/><g fill="#fa541c"><path d="m13.8577 75.1322c-.631 0-1.1426-.5116-1.1426-1.1426v-2.5566c0-.631.5116-1.1426 1.1426-1.1426s1.1425.5116 1.1425 1.1426v2.5566c0 .631-.5115 1.1426-1.1425 1.1426z"/><path d="m44.5688 75.1322c-.631 0-1.1425-.5116-1.1425-1.1426v-2.5566c0-.631.5115-1.1426 1.1425-1.1426.6311 0 1.1426.5116 1.1426 1.1426v2.5566c0 .631-.5115 1.1426-1.1426 1.1426z"/><path d="m26.49 41.6996c-.631 0-1.1426-.7092-1.1426-1.5841v-3.476c0-.8749.5116-1.5841 1.1426-1.5841s1.1426.7092 1.1426 1.5841v3.476c0 .8749-.5116 1.5841-1.1426 1.5841z"/><path d="m36.3513 41.6996c-.631 0-1.1426-.7092-1.1426-1.5841v-3.476c0-.8749.5116-1.5841 1.1426-1.5841s1.1426.7092 1.1426 1.5841v3.476c0 .8749-.5116 1.5841-1.1426 1.5841z"/></g><path d="m50.6677 28.0821c-.631 0-1.1426-.5116-1.1426-1.1426v-17.51468c0-1.57067 1.2779-2.84853 2.8486-2.84853h1.3947c.631 0 1.1425.51157 1.1425 1.14258s-.5115 1.14258-1.1425 1.14258h-1.3947c-.3107 0-.5634.25274-.5634.56337v17.51478c0 .6309-.5116 1.1425-1.1426 1.1425z" fill="#77f0ed"/><path d="m65.7351 28.267c-.631 0-1.1425-.5116-1.1425-1.1426v-17.69958c0-.31063-.2528-.56337-.5634-.56337h-1.2047c-.631 0-1.1426-.51157-1.1426-1.14258s.5116-1.14258 1.1426-1.14258h1.2047c1.5707 0 2.8485 1.27786 2.8485 2.84853v17.69958c0 .631-.5115 1.1426-1.1426 1.1426z" fill="#77f0ed"/><path d="m47.7043 71.2809h-24.796l-2.5361-1.5235-2.5361 1.5235h-6.5488c-.9855 0-1.78437-.7989-1.78437-1.7844v-27.3433c0-.9855.79887-1.7844 1.78437-1.7844h6.5488l2.5361 1.5234 2.5361-1.5234h24.796z" fill="#fdab76"/><path d="m37.7969 40.3688h9.9075v30.9121h-9.9075z" fill="#fa541c"/><path d="m17.8367 40.3688h5.0721v30.9121h-5.0721z" fill="#fa541c"/><path d="m69.7264 71.5213h-23.3056c-2.0272 0-3.6706-1.6435-3.6706-3.6707v-37.1642c0-2.0272 1.6435-3.6705 3.6706-3.6705h23.3056c2.0272 0 3.6705 1.6433 3.6705 3.6705v37.1642c.0002 2.0272-1.6431 3.6707-3.6705 3.6707z" fill="#22b8cf"/><path d="m69.7261 27.0159h-4.5703c2.0272 0 3.6705 1.6433 3.6705 3.6705v37.1642c0 2.0272-1.6433 3.6707-3.6705 3.6707h4.5703c2.0272 0 3.6705-1.6435 3.6705-3.6707v-37.1642c.0002-2.0272-1.6431-3.6705-3.6705-3.6705z" fill="#116e95"/><path d="m37.7993 37.2029h-12.6918c-.5947 0-1.0767-.4822-1.0767-1.0768v-2.1422c0-.5948.4821-1.0768 1.0767-1.0768h12.6918c.5947 0 1.0768.4822 1.0768 1.0768v2.1422c0 .5946-.4822 1.0768-1.0768 1.0768z" fill="#b3200e"/><g fill="#116e95"><path d="m50.4124 66.5785c-.6311 0-1.1426-.5116-1.1426-1.1426v-32.2242c0-.631.5115-1.1426 1.1426-1.1426.631 0 1.1425.5116 1.1425 1.1426v32.2242c0 .631-.5115 1.1426-1.1425 1.1426z"/><path d="m58.074 66.5784c-.631 0-1.1426-.5116-1.1426-1.1426v-14.7871c0-.631.5116-1.1426 1.1426-1.1426s1.1426.5116 1.1426 1.1426v14.7871c0 .631-.5116 1.1426-1.1426 1.1426z"/><path d="m58.074 47.2209c-.631 0-1.1426-.5116-1.1426-1.1426v-12.8666c0-.631.5116-1.1426 1.1426-1.1426s1.1426.5116 1.1426 1.1426v12.8666c0 .6312-.5116 1.1426-1.1426 1.1426z"/><path d="m65.7356 66.5785c-.631 0-1.1426-.5116-1.1426-1.1426v-32.2242c0-.631.5116-1.1426 1.1426-1.1426s1.1426.5116 1.1426 1.1426v32.2242c0 .631-.5116 1.1426-1.1426 1.1426z"/></g><path d="m60.7831 4.36487h-5.1622c-1.2536 0-2.2701 1.01628-2.2701 2.27007v2.01246c0 1.25364 1.0163 2.2701 2.2701 2.2701h5.1622c1.2536 0 2.27-1.01631 2.27-2.2701v-2.01246c-.0001-1.25363-1.0164-2.27007-2.27-2.27007z" fill="#22b8cf"/><path d="m77.8574 76.385h-75.71482c-.63101 0-1.14258-.5116-1.14258-1.1426s.51157-1.1425 1.14258-1.1425h75.71482c.631 0 1.1426.5115 1.1426 1.1425s-.5116 1.1426-1.1426 1.1426z" fill="#dfe3e8"/></svg>