<svg fill="none" height="80" viewBox="0 0 80 80" width="80" xmlns="http://www.w3.org/2000/svg"><path d="m18.457 74.9757h-13.52023v-17.3353c0-.433.351-.7838.78381-.7838h11.95242c.433 0 .7838.351.7838.7838v17.3353z" fill="#fdab76"/><path d="m18.4561 57.6411v16.0057h-3.8298v-16.0057c0-.4343-.3511-.7838-.7838-.7838h3.8298c.4327 0 .7838.3496.7838.7838z" fill="#fa541c"/><path d="m56.1951 74.9758h-13.5203v-40.4582c0-.433.351-.7838.7838-.7838h11.9525c.433 0 .7838.351.7838.7838v40.4582z" fill="#fdab76"/><path d="m56.1942 34.5182v39.1286h-3.8298v-39.1286c0-.4343-.3512-.7838-.7838-.7838h3.8298c.4326 0 .7838.3496.7838.7838z" fill="#fa541c"/><path d="m75.0639 74.9758h-13.5202v-54.933c0-.4329.351-.7838.7838-.7838h11.9525c.4329 0 .7838.351.7838.7838v54.933z" fill="#fdab76"/><path d="m75.0631 20.0435v53.6032h-3.8298v-53.6032c0-.4344-.3512-.7839-.7838-.7839h3.8297c.4327-.0001.7839.3495.7839.7839z" fill="#fa541c"/><path d="m37.3259 74.9757h-13.5202v-31.7931c0-.4329.351-.7838.7838-.7838h11.9524c.433 0 .7838.351.7838.7838v31.7931z" fill="#fdab76"/><path d="m37.325 43.1832v30.4634h-3.8298v-30.4634c0-.4343-.3511-.7838-.7838-.7838h3.8298c.4327-.0001.7838.3495.7838.7838z" fill="#fa541c"/><path d="m58.8289 1.07843-8.5798 1.51415c-1.4344.2532-2.4495 1.64136-2.2557 3.08513.2101 1.56503 1.6541 2.62093 3.2091 2.34656l1.4797-.26112-6.7547 10.65105c-.5346.8427-1.6512 1.0927-2.4939.5581l-11.6714-6.0928c-1.4557-.9232-3.3842-.4918-4.3077.9636l-10.5668 15.8345c-.891 1.404-.4748 3.2646.9295 4.1552 1.404.8904 3.264.4741 4.1544-.9299l8.0403-11.8632c.5346-.8428 1.6511-1.0928 2.4939-.5582l11.6779 6.0969c1.456.9234 3.385.4917 4.3083-.9643l9.2848-14.6403.3327 1.8853c.2646 1.4995 1.6948 2.5007 3.1944 2.2359 1.4996-.2646 2.5009-1.695 2.2359-3.1946l-1.5166-8.58632c-.2647-1.49937-1.6948-2.500271-3.1943-2.23565z" fill="#22b8cf"/><path d="m63.5395 11.8999-1.5161-8.58549c-.265-1.49907-1.6961-2.500733-3.1952-2.23596l-.1375.02377c.2631 1.04584.5891 2.07797.7097 3.15642.1225 1.09185.8024 3.05328-.4261 3.7626-.7521.43418-1.6177-.04189-2.3979.4485-.6861.43129-1.0557 1.069-1.4815 1.73936-1.0492 1.6518-2.0951 3.302-3.1409 4.9522-1.5076 2.3769-2.9262 4.8126-4.5228 7.1323-1.1244 1.6338-2.0582 1.8036-4.3089.5585l-11.6789-6.0967c-.8421-.5347-1.9591-.2851-2.494.5569l-8.0394 12.2696c-.8913 1.404-2.7502 1.8201-4.1544.9304-.0679-.0442-.1341-.0884-.197-.1376-.4057 1.2733.0763 2.7079 1.2581 3.4584.5009.3175 1.0577.4686 1.6095.4686.9966 0 1.971-.4957 2.5449-1.399l8.0394-11.8638c.5349-.8421 1.6518-1.0917 2.494-.5568l11.6789 6.0967c1.455.9236 3.3837.4907 4.3072-.9644l9.2849-14.6413.3328 1.8861c.2649 1.4991 1.6943 2.5008 3.1951 2.236 1.3379-.236 2.2783-1.4007 2.2783-2.713.0003-.1596-.0133-.3209-.0422-.4823z" fill="#116e95"/><path d="m78.2162 78.9641h-76.43239c-.43296 0-.78381-.351-.78381-.7838v-3.7494c0-.433.351-.7838.78381-.7838h76.43219c.433 0 .7838.351.7838.7838v3.7494c.0002.4328-.3506.7838-.7836.7838z" fill="#dfe3e8"/></svg>