<svg width="106" height="32" viewBox="0 0 106 32" fill="none" xmlns="http://www.w3.org/2000/svg">
<mask id="mask0_1427:67673" style="mask-type:alpha" maskUnits="userSpaceOnUse" x="0" y="0" width="106" height="32">
<rect width="106" height="32" fill="#919EAB"/>
</mask>
<g mask="url(#mask0_1427:67673)">
<path d="M23.2994 3H23.9969C26.4183 3.05264 28.8002 4.02645 30.5109 5.75036C29.8793 6.39518 29.2344 7.01368 28.6159 7.6585C27.6553 6.78997 26.4972 6.11883 25.2339 5.88195C23.3652 5.48717 21.3518 5.84247 19.7858 6.9084C18.0751 8.02697 16.917 9.92195 16.667 11.9485C16.3906 13.9488 16.9565 16.0543 18.2593 17.6072C19.5095 19.1205 21.4176 20.068 23.3916 20.1338C25.2339 20.2391 27.1552 19.6732 28.4975 18.3836C29.5503 17.4756 30.0372 16.0938 30.1951 14.7515C28.0106 14.7515 25.8261 14.7647 23.6416 14.7515V12.0406H32.8402C33.3139 14.9489 32.6296 18.2257 30.4188 20.3049C28.9449 21.7788 26.9052 22.6473 24.826 22.8184C22.8125 23.0158 20.7333 22.6341 18.9436 21.6603C16.7986 20.5154 15.0878 18.581 14.2456 16.3044C13.456 14.212 13.4429 11.8433 14.1798 9.73772C14.851 7.81642 16.1406 6.11883 17.7987 4.93446C19.391 3.76326 21.3255 3.11844 23.2994 3Z" fill="#3780FF"/>
<path d="M76.0693 3.68427H78.8854V22.4762C77.9511 22.4762 77.0037 22.4894 76.0693 22.4631C76.0825 16.2122 76.0693 9.94825 76.0693 3.68427Z" fill="#38B137"/>
<path d="M39.1041 10.1983C40.8412 9.86935 42.723 10.2378 44.1574 11.2774C45.4602 12.1986 46.3683 13.6462 46.6446 15.2253C46.9999 17.0545 46.5525 19.0547 45.3681 20.5023C44.0916 22.1209 41.9993 22.9895 39.9595 22.8579C38.0908 22.7526 36.2748 21.8183 35.1694 20.2917C33.9192 18.6073 33.6166 16.2912 34.3009 14.3173C34.9852 12.1986 36.9196 10.58 39.1041 10.1983ZM39.4989 12.6987C38.7883 12.8829 38.1303 13.2908 37.6566 13.8699C36.3801 15.3964 36.459 17.8835 37.8671 19.3048C38.6699 20.1207 39.8806 20.5023 40.9991 20.2786C42.0387 20.0944 42.9468 19.3969 43.4468 18.4757C44.3154 16.9097 44.0653 14.7516 42.7362 13.5277C41.8808 12.7381 40.6307 12.4092 39.4989 12.6987Z" fill="#FA3913"/>
<path d="M53.0533 10.1983C55.0404 9.8167 57.2118 10.3694 58.6988 11.7643C61.1202 13.9357 61.3834 18.002 59.3173 20.5023C58.0671 22.0815 56.0406 22.95 54.0403 22.8579C52.1322 22.8053 50.2503 21.8578 49.1186 20.2918C47.8421 18.5679 47.5658 16.1991 48.2896 14.1857C49.0133 12.1328 50.9083 10.5668 53.0533 10.1983ZM53.4481 12.6987C52.7375 12.8829 52.0795 13.2908 51.6058 13.8567C50.3425 15.3569 50.3951 17.8046 51.7505 19.239C52.5533 20.0944 53.8034 20.5155 54.9615 20.2786C55.9879 20.0812 56.9091 19.3969 57.4092 18.4757C58.2645 16.8966 58.0145 14.7384 56.6722 13.5146C55.8169 12.725 54.5667 12.4091 53.4481 12.6987Z" fill="#FCBD06"/>
<path d="M64.8838 10.9615C66.3971 10.014 68.4105 9.75083 70.0423 10.5667C70.5556 10.7904 70.9767 11.1721 71.3846 11.5537C71.3978 11.1984 71.3846 10.8299 71.3978 10.4614C72.2795 10.4746 73.1612 10.4614 74.056 10.4746V22.0814C74.0429 23.8316 73.5954 25.6871 72.3321 26.9636C70.9504 28.3717 68.8317 28.806 66.9235 28.5165C64.8838 28.2138 63.1072 26.7267 62.3176 24.8449C63.1072 24.4633 63.9363 24.1606 64.7522 23.8053C65.2128 24.8844 66.1471 25.8056 67.3183 26.0161C68.4895 26.2267 69.8449 25.9372 70.6082 24.9634C71.4241 23.9632 71.4241 22.5946 71.3846 21.3708C70.7793 21.963 70.0818 22.4893 69.2396 22.6867C67.4104 23.2 65.397 22.5683 63.9889 21.3313C62.5677 20.0943 61.7255 18.1861 61.8044 16.2912C61.8439 14.1461 63.0546 12.0801 64.8838 10.9615ZM67.6078 12.6459C66.8051 12.7775 66.055 13.225 65.5418 13.8435C64.3047 15.3173 64.3047 17.6729 65.5549 19.1205C66.2655 19.9759 67.4104 20.4496 68.5158 20.3312C69.5554 20.2259 70.5161 19.5679 71.0293 18.6599C71.8978 17.1202 71.7531 15.0278 70.5819 13.6856C69.8581 12.8565 68.7001 12.4485 67.6078 12.6459Z" fill="#3780FF"/>
<path d="M82.2677 11.6328C83.8469 10.1589 86.2815 9.6588 88.3081 10.4352C90.2294 11.159 91.4532 12.9882 92.0717 14.87C89.2161 16.0544 86.3736 17.2256 83.5179 18.41C83.9127 19.1601 84.5181 19.8444 85.334 20.1207C86.4789 20.5287 87.8475 20.3839 88.8081 19.6207C89.1898 19.3312 89.4924 18.9495 89.7819 18.5811C90.5057 19.068 91.2295 19.5417 91.9533 20.0286C90.9268 21.5683 89.2029 22.6474 87.3474 22.8185C85.2945 23.0685 83.11 22.2789 81.7808 20.6734C79.5963 18.1468 79.8069 13.9094 82.2677 11.6328ZM83.6758 14.0673C83.2284 14.7121 83.0442 15.5017 83.0573 16.2781C84.9655 15.4885 86.8736 14.699 88.7818 13.8962C88.466 13.1593 87.7027 12.7118 86.9263 12.5934C85.6761 12.3697 84.3733 13.0408 83.6758 14.0673Z" fill="#FA3913"/>
</g>
</svg>
