<svg width="106" height="32" viewBox="0 0 106 32" fill="none" xmlns="http://www.w3.org/2000/svg">
<mask id="mask0_1427:67670" style="mask-type:alpha" maskUnits="userSpaceOnUse" x="0" y="0" width="106" height="32">
<rect width="106" height="32" fill="#919EAB"/>
</mask>
<g mask="url(#mask0_1427:67670)">
<path d="M103.825 19.5554C103.507 19.5554 103.249 19.8134 103.249 20.131C103.249 20.4487 103.507 20.7066 103.825 20.7066C104.142 20.7066 104.4 20.4487 104.4 20.131C104.4 19.8134 104.142 19.5554 103.825 19.5554ZM103.825 20.6154C103.557 20.6154 103.34 20.3975 103.34 20.131C103.34 19.8633 103.558 19.6467 103.825 19.6467C104.092 19.6467 104.31 19.8645 104.31 20.131C104.31 20.3975 104.092 20.6154 103.825 20.6154ZM104.012 20.0325C104.012 19.9278 103.938 19.8657 103.828 19.8657H103.644V20.3902H103.734V20.2004H103.833L103.928 20.3902H104.025L103.921 20.181C103.977 20.1554 104.012 20.1042 104.012 20.0325ZM103.825 20.1189H103.736V19.9449H103.825C103.885 19.9449 103.922 19.9753 103.922 20.0313C103.922 20.0885 103.884 20.1189 103.825 20.1189ZM34.4685 13.73V12.3379H32.3341V20.6202H34.4685V15.654C34.4685 14.7547 35.0454 14.3129 35.9447 14.3129H37.1129V12.3379H36.115C35.3338 12.3379 34.6547 12.7455 34.4685 13.73ZM39.1123 9.06195C38.3822 9.06195 37.8224 9.63878 37.8224 10.3689C37.8224 11.082 38.3822 11.6589 39.1123 11.6589C39.8425 11.6589 40.4023 11.082 40.4023 10.3689C40.4022 9.63875 39.8425 9.06195 39.1123 9.06195ZM38.0475 20.6202H40.1771V12.3379H38.0475V20.6202ZM50.3214 16.479C50.3214 18.8435 48.4047 20.7602 46.0402 20.7602C45.0861 20.7602 44.2209 20.4475 43.5273 19.9193V23.0517H41.3977V12.3379H43.5273V13.0388C44.2209 12.5107 45.0861 12.1979 46.0402 12.1979C48.4047 12.1979 50.3214 14.1146 50.3214 16.479ZM48.1784 16.479C48.1784 15.1952 47.1367 14.1535 45.8528 14.1535C44.569 14.1535 43.5273 15.1952 43.5273 16.479C43.5273 17.7629 44.569 18.8046 45.8528 18.8046C47.1367 18.8046 48.1784 17.7641 48.1784 16.479ZM87.3352 15.7526L86.0927 15.4118C85.275 15.1988 84.9574 14.9482 84.9574 14.5162C84.9574 14.0951 85.4052 13.8006 86.0453 13.8006C86.655 13.8006 87.1332 14.1998 87.1332 14.7109V14.7583H89.0961V14.7109C89.0961 13.2079 87.8707 12.1979 86.0453 12.1979C84.2382 12.1979 82.9251 13.2067 82.9251 14.5977C82.9251 15.6795 83.6419 16.4948 84.8929 16.8331L86.083 17.1581C86.9872 17.4087 87.3231 17.6862 87.3231 18.184C87.3231 18.7085 86.8375 19.0613 86.1146 19.0613C85.3613 19.0613 84.8539 18.5843 84.8539 17.8761V17.8286H82.7705V17.8761C82.7705 19.5749 84.1384 20.7626 86.0976 20.7626C87.9851 20.7626 89.3553 19.6029 89.3553 18.0063C89.3553 17.2226 89.0048 16.198 87.3352 15.7526ZM57.876 12.3379H60.0056V20.6202H57.876V19.9193C57.1824 20.4474 56.3171 20.7602 55.3631 20.7602C52.9986 20.7602 51.082 18.8435 51.082 16.479C51.082 14.1145 52.9986 12.1979 55.3631 12.1979C56.3171 12.1979 57.1824 12.5106 57.876 13.0388V12.3379ZM57.876 16.479C57.876 15.194 56.8343 14.1535 55.5505 14.1535C54.2666 14.1535 53.225 15.1952 53.225 16.479C53.225 17.7629 54.2666 18.8046 55.5505 18.8046C56.8355 18.8046 57.876 17.7641 57.876 16.479ZM67.6954 9.39051H69.825V20.6214H67.6954V19.9205C67.0017 20.4486 66.1365 20.7614 65.1824 20.7614C62.8179 20.7614 60.9013 18.8447 60.9013 16.4802C60.9013 14.1157 62.8179 12.1991 65.1824 12.1991C66.1365 12.1991 67.0017 12.5119 67.6954 13.04V9.39051ZM67.6954 16.479C67.6954 15.1952 66.6536 14.1535 65.3698 14.1535C64.086 14.1535 63.0443 15.1952 63.0443 16.479C63.0443 17.7629 64.0847 18.8046 65.3698 18.8046C66.6536 18.8046 67.6954 17.7641 67.6954 16.479ZM79.7124 20.6202H81.842V12.3379H79.7124V20.6202ZM80.7772 9.06195C80.0471 9.06195 79.4873 9.63878 79.4873 10.3689C79.4873 11.082 80.0471 11.6589 80.7772 11.6589C81.5074 11.6589 82.0672 11.082 82.0672 10.3689C82.0672 9.63875 81.5074 9.06195 80.7772 9.06195ZM98.5601 16.479C98.5601 18.8435 96.6435 20.7602 94.2789 20.7602C91.9145 20.7602 89.9978 18.8435 89.9978 16.479C89.9978 14.1146 91.9145 12.1979 94.2789 12.1979C96.6435 12.1979 98.5601 14.1146 98.5601 16.479ZM96.6045 16.479C96.6045 15.1952 95.5628 14.1535 94.279 14.1535C92.9951 14.1535 91.9534 15.1952 91.9534 16.479C91.9534 17.7629 92.9939 18.8046 94.279 18.8046C95.5628 18.8046 96.6045 17.7641 96.6045 16.479ZM33.3782 9.39051H25.209V11.2901H28.233V20.6202H30.3554V11.2901H33.3794V9.39051H33.3782ZM74.6914 18.3519L72.7967 12.3379H70.56L73.4015 20.6202H75.9643L78.8228 12.3379H76.5861L74.6914 18.3519ZM101.68 13.73V12.3379H99.5458V20.6202H101.68V15.654C101.68 14.7547 102.257 14.3129 103.156 14.3129H104.325V12.3379H103.327C102.545 12.3379 101.868 12.7455 101.68 13.73Z" fill="black"/>
<path d="M12.8914 26.7828C18.9066 26.7828 23.7828 21.9066 23.7828 15.8914C23.7828 9.87625 18.9066 5 12.8914 5C6.87625 5 2 9.87625 2 15.8914C2 21.9066 6.87625 26.7828 12.8914 26.7828Z" fill="#34E0A1"/>
<path d="M19.6184 13.7667L20.9327 12.3368H18.0181C16.5591 11.3401 14.7969 10.7596 12.8913 10.7596C10.988 10.7596 9.23077 11.3414 7.77411 12.3368H4.85229L6.16657 13.7667C5.36098 14.5017 4.85596 15.5604 4.85596 16.736C4.85596 18.9544 6.65459 20.753 8.87303 20.753C9.92688 20.753 10.887 20.3465 11.6038 19.6821L12.8913 21.084L14.1788 19.6833C14.8956 20.3478 15.8545 20.753 16.9083 20.753C19.1268 20.753 20.9278 18.9544 20.9278 16.736C20.929 15.5592 20.424 14.5005 19.6184 13.7667ZM8.87422 19.4545C7.37252 19.4545 6.15564 18.2376 6.15564 16.736C6.15564 15.2343 7.37255 14.0173 8.87422 14.0173C10.3759 14.0173 11.5928 15.2343 11.5928 16.736C11.5928 18.2376 10.3759 19.4545 8.87422 19.4545ZM12.8925 16.6569C12.8925 14.868 11.5916 13.3322 9.87452 12.6763C10.803 12.2881 11.8216 12.0727 12.8913 12.0727C13.9609 12.0727 14.9807 12.2881 15.9092 12.6763C14.1934 13.3334 12.8925 14.868 12.8925 16.6569ZM16.9095 19.4545C15.4078 19.4545 14.1909 18.2376 14.1909 16.736C14.1909 15.2343 15.4078 14.0173 16.9095 14.0173C18.4112 14.0173 19.6281 15.2343 19.6281 16.736C19.6281 18.2376 18.4112 19.4545 16.9095 19.4545ZM16.9095 15.3097C16.1222 15.3097 15.4845 15.9474 15.4845 16.7347C15.4845 17.5221 16.1222 18.1597 16.9095 18.1597C17.6969 18.1597 18.3345 17.5221 18.3345 16.7347C18.3345 15.9486 17.6969 15.3097 16.9095 15.3097ZM10.2992 16.736C10.2992 17.5233 9.66155 18.161 8.87422 18.161C8.08689 18.161 7.44921 17.5233 7.44921 16.736C7.44921 15.9486 8.08689 15.3109 8.87422 15.3109C9.66155 15.3097 10.2992 15.9486 10.2992 16.736Z" fill="black"/>
</g>
</svg>
