<svg width="106" height="32" viewBox="0 0 106 32" fill="none" xmlns="http://www.w3.org/2000/svg">
<mask id="mask0_1427:67676" style="mask-type:alpha" maskUnits="userSpaceOnUse" x="0" y="0" width="106" height="32">
<rect width="106" height="32" fill="#919EAB"/>
</mask>
<g mask="url(#mask0_1427:67676)">
<path d="M103.515 14.6462V12.8897H101.334V10.1591L101.26 10.1817L99.2115 10.8085L99.1711 10.8208V12.8898H95.9375V11.7372C95.9375 11.2005 96.0575 10.7898 96.294 10.5159C96.5289 10.2453 96.8648 10.1077 97.2933 10.1077C97.6013 10.1077 97.9202 10.1802 98.2412 10.3233L98.3216 10.3593V8.50948L98.2838 8.49557C97.9844 8.38794 97.5771 8.33374 97.0723 8.33374C96.4361 8.33374 95.8581 8.47219 95.3539 8.74658C94.8495 9.02135 94.4527 9.4136 94.1748 9.91233C93.8978 10.4105 93.7572 10.9858 93.7572 11.6225V12.8897H92.2384V14.6462H93.7572V22.0458H95.9375V14.6462H99.1711V19.3485C99.1711 21.2851 100.085 22.2666 101.886 22.2666C102.182 22.2666 102.494 22.2319 102.812 22.164C103.136 22.0942 103.356 22.0245 103.486 21.9501L103.515 21.9331V20.1605L103.426 20.2191C103.308 20.2979 103.16 20.3624 102.988 20.4103C102.814 20.4591 102.669 20.4835 102.557 20.4835C102.135 20.4835 101.823 20.3698 101.629 20.1454C101.433 19.9189 101.334 19.5229 101.334 18.9689V14.6462H103.515ZM87.3694 20.4838C86.578 20.4838 85.9541 20.2214 85.5144 19.7045C85.072 19.185 84.8479 18.4444 84.8479 17.5034C84.8479 16.5325 85.072 15.7726 85.5146 15.2439C85.9546 14.7187 86.5725 14.4522 87.3516 14.4522C88.1076 14.4522 88.7095 14.7067 89.1406 15.2092C89.5738 15.7143 89.7937 16.4681 89.7937 17.4503C89.7937 18.4446 89.5869 19.2083 89.1792 19.7192C88.7743 20.2262 88.1654 20.4838 87.3694 20.4838ZM87.4663 12.6691C85.9565 12.6691 84.7573 13.1115 83.9023 13.9841C83.0478 14.8567 82.6146 16.0643 82.6146 17.5736C82.6146 19.0072 83.0375 20.1603 83.8717 21.0003C84.7058 21.8407 85.8411 22.2664 87.2456 22.2664C88.7091 22.2664 89.8844 21.8178 90.739 20.9332C91.5936 20.0495 92.0265 18.8534 92.0265 17.3793C92.0265 15.9233 91.6203 14.7616 90.8187 13.9272C90.0167 13.0923 88.8886 12.6691 87.4663 12.6691ZM79.0993 12.6691C78.0723 12.6691 77.2228 12.9318 76.5738 13.4498C75.9209 13.9708 75.5897 14.6542 75.5897 15.4811C75.5897 15.9109 75.6612 16.2928 75.8018 16.6166C75.9434 16.9415 76.1624 17.2276 76.4534 17.4677C76.7422 17.7059 77.188 17.9553 77.7787 18.2091C78.2753 18.4135 78.6456 18.5863 78.8809 18.7225C79.1108 18.8561 79.274 18.9903 79.3661 19.121C79.4557 19.2489 79.5011 19.424 79.5011 19.64C79.5011 20.2551 79.0405 20.5545 78.0926 20.5545C77.741 20.5545 77.3399 20.481 76.9006 20.3363C76.4645 20.1938 76.0528 19.985 75.68 19.7174L75.5895 19.6525V21.7516L75.6227 21.7671C75.9312 21.9095 76.3202 22.0296 76.7786 22.1241C77.2362 22.2186 77.6519 22.2668 78.0131 22.2668C79.1275 22.2668 80.025 22.0028 80.6798 21.4818C81.3388 20.9571 81.6728 20.2576 81.6728 19.4021C81.6728 18.7849 81.493 18.2557 81.1386 17.8288C80.7867 17.4055 80.1758 17.0168 79.3237 16.6732C78.6449 16.4008 78.2101 16.1746 78.0306 16.001C77.8577 15.8333 77.7699 15.5961 77.7699 15.2957C77.7699 15.0294 77.8783 14.8161 78.1008 14.6434C78.325 14.4697 78.6372 14.3814 79.0287 14.3814C79.3919 14.3814 79.7636 14.4388 80.1333 14.5513C80.5026 14.6637 80.8271 14.8144 81.0979 14.9986L81.1869 15.0595V13.0683L81.1527 13.0536C80.9029 12.9464 80.5734 12.8547 80.1733 12.7803C79.7749 12.7064 79.4136 12.6691 79.0993 12.6691ZM69.9057 20.4838C69.1146 20.4838 68.4904 20.2214 68.0508 19.7045C67.6083 19.185 67.3846 18.4446 67.3846 17.5034C67.3846 16.5325 67.6086 15.7726 68.0513 15.2439C68.4909 14.7187 69.1088 14.4522 69.8883 14.4522C70.644 14.4522 71.2458 14.7067 71.677 15.2092C72.1103 15.7143 72.3301 16.4681 72.3301 17.4503C72.3301 18.4446 72.1232 19.2083 71.7155 19.7192C71.3106 20.2262 70.702 20.4838 69.9057 20.4838ZM70.0029 12.6691C68.4928 12.6691 67.2935 13.1115 66.4389 13.9841C65.5845 14.8567 65.151 16.0643 65.151 17.5736C65.151 19.0077 65.5741 20.1603 66.4083 21.0003C67.2425 21.8407 68.3776 22.2664 69.7821 22.2664C71.2454 22.2664 72.421 21.8178 73.2757 20.9332C74.13 20.0495 74.5632 18.8534 74.5632 17.3793C74.5632 15.9233 74.1568 14.7616 73.355 13.9272C72.5528 13.0923 71.4249 12.6691 70.0029 12.6691ZM61.8413 14.4753V12.8897H59.6876V22.0456H61.8413V17.362C61.8413 16.5656 62.0219 15.9113 62.3782 15.4172C62.73 14.9289 63.1988 14.6814 63.7711 14.6814C63.9651 14.6814 64.1829 14.7134 64.4187 14.7767C64.6521 14.8396 64.8212 14.9079 64.9209 14.9798L65.0114 15.0454V12.8741L64.9766 12.8591C64.776 12.7739 64.4922 12.7309 64.1332 12.7309C63.592 12.7309 63.1077 12.9048 62.6928 13.2472C62.3286 13.5481 62.0655 13.9608 61.8642 14.4753H61.8413ZM55.8306 12.6691C54.8426 12.6691 53.9612 12.881 53.2116 13.2987C52.4604 13.7173 51.8795 14.315 51.4842 15.0749C51.0907 15.8331 50.8909 16.7186 50.8909 17.7062C50.8909 18.5713 51.0846 19.3652 51.4675 20.0649C51.8506 20.7657 52.3928 21.314 53.0792 21.6943C53.7645 22.0741 54.5567 22.2667 55.4337 22.2667C56.4573 22.2667 57.3312 22.062 58.0318 21.6585L58.0601 21.6422V19.6691L57.9696 19.7352C57.6522 19.9664 57.2975 20.1509 56.9159 20.2838C56.5353 20.4167 56.1882 20.4838 55.8839 20.4838C55.0388 20.4838 54.3604 20.2194 53.8679 19.6981C53.3744 19.176 53.1242 18.443 53.1242 17.5206C53.1242 16.5925 53.3851 15.8406 53.8994 15.2859C54.4121 14.7327 55.0918 14.4522 55.9194 14.4522C56.6273 14.4522 57.3172 14.6919 57.9698 15.1653L58.0601 15.2309V13.1518L58.0309 13.1354C57.7853 12.9979 57.4504 12.8844 57.0346 12.7983C56.6205 12.7124 56.2155 12.6691 55.8306 12.6691ZM49.4076 12.8898H47.2539V22.0456H49.4076V12.8898ZM48.3528 8.98937C47.9983 8.98937 47.6891 9.11004 47.4351 9.34916C47.1801 9.58896 47.0507 9.89088 47.0507 10.2472C47.0507 10.5979 47.1785 10.8943 47.4312 11.1277C47.6822 11.3605 47.9923 11.4785 48.3529 11.4785C48.7133 11.4785 49.0246 11.3605 49.2786 11.1281C49.5343 10.8943 49.6639 10.598 49.6639 10.2472C49.6639 9.90334 49.5377 9.60451 49.2892 9.35882C49.0408 9.11361 48.7256 8.98937 48.3528 8.98937ZM42.9791 12.2143V22.0456H45.177V9.26965H42.1349L38.2682 18.7593L34.5158 9.26965H31.3499V22.0455H33.4154V12.2133H33.4863L37.4487 22.0456H39.0075L42.9081 12.2143H42.9791Z" fill="#706D6E"/>
<path d="M13.7717 15.1318H3.63989V5H13.7717V15.1318Z" fill="#F1511B"/>
<path d="M24.9582 15.1324H14.8267V5.00061H24.9582V15.1324Z" fill="#80CC28"/>
<path d="M13.7714 26.323H3.63989V16.1913H13.7714V26.323Z" fill="#00ADEF"/>
<path d="M24.9582 26.323H14.8267V16.1913H24.9582V26.323Z" fill="#FBBC09"/>
</g>
</svg>
